<svg width="21" height="21" viewBox="0 0 21 21" fill="none" xmlns="http://www.w3.org/2000/svg">
<path d="M13.6322 10.4997C13.6322 12.2322 12.2322 13.6322 10.4997 13.6322C8.76719 13.6322 7.36719 12.2322 7.36719 10.4997C7.36719 8.76719 8.76719 7.36719 10.4997 7.36719C12.2322 7.36719 13.6322 8.76719 13.6322 10.4997Z" stroke="white" stroke-width="1.125" stroke-linecap="round" stroke-linejoin="round"/>
<path d="M10.4999 17.7366C13.5886 17.7366 16.4674 15.9166 18.4711 12.7666C19.2586 11.5329 19.2586 9.45912 18.4711 8.22537C16.4674 5.07537 13.5886 3.25537 10.4999 3.25537C7.41111 3.25537 4.53236 5.07537 2.52861 8.22537C1.74111 9.45912 1.74111 11.5329 2.52861 12.7666C4.53236 15.9166 7.41111 17.7366 10.4999 17.7366Z" stroke="white" stroke-width="1.125" stroke-linecap="round" stroke-linejoin="round"/>
</svg>
