<svg width="50" height="51" viewBox="0 0 50 51" fill="none" xmlns="http://www.w3.org/2000/svg">
<path d="M23.4028 0.565942C24.0565 0.375848 24.7355 -0.0238705 25.4413 0.237834C30.8795 1.92655 36.2297 3.82228 41.6529 5.54875C44.2603 6.43672 46.9496 7.15674 49.475 8.21788C50.166 8.48609 50.1451 9.40401 49.5867 9.7816C49.0462 10.1227 48.4089 10.3129 47.8103 10.5602C44.8827 11.7425 41.9582 12.9299 39.0441 14.1369C39.0515 16.444 39.0574 18.7524 39.0649 21.0596C39.0932 21.4568 38.8654 21.8226 38.8893 22.2185C38.8907 24.0764 38.8922 25.9331 38.8832 27.791C38.6495 30.4771 37.4389 33.0954 35.4018 35.1266C38.2728 36.8765 40.4587 39.3946 41.8659 42.1809C42.7713 43.8944 43.2164 45.7654 43.4517 47.6324C43.5054 48.3329 43.562 49.1493 42.9559 49.6948C42.6283 49.9305 42.2292 50.157 41.7899 50.1506C30.8631 50.1506 19.9377 50.1492 9.01241 50.1506C8.24255 50.1792 7.63948 49.6089 7.34167 49.0425C7.25976 48.5699 7.2955 48.0882 7.31337 47.6129C7.7586 44.1456 9.15833 40.7019 11.7404 38.0053C12.6413 37.0666 13.6523 36.206 14.7707 35.4678C12.6681 33.4392 11.2222 30.8352 10.9959 28.0866C10.978 25.3524 10.9944 22.6169 10.9914 19.8827C10.9795 19.0975 11.121 18.3202 11.1478 17.539C11.0063 16.4323 11.0867 15.319 11.0614 14.2084C10.1024 13.8296 9.15685 13.4272 8.18597 13.0731C7.54418 12.8518 6.97089 12.482 6.29037 12.3479C6.17422 13.5744 6.24421 14.81 6.58521 16.0079C7.17935 16.1627 7.8003 16.4766 7.9507 17.0442C8.14279 17.4361 7.91347 17.8411 7.76307 18.2095C8.40934 19.1847 8.50761 20.3409 8.54632 21.4424C8.58057 23.1116 8.45549 24.7847 8.16661 26.4344C7.71393 26.2351 7.41761 25.6375 6.83389 25.8211C6.30377 25.95 5.82281 26.1883 5.32843 26.3914C5.33439 25.9357 5.43266 25.4891 5.54137 25.0451C6.0283 22.9684 6.42142 20.8773 6.75943 18.7798C6.0968 18.7746 5.35077 18.5767 5.06933 17.9986C4.66133 17.345 5.07678 16.5872 5.69921 16.1705C5.59647 15.3659 5.35375 14.5756 5.34332 13.7632C5.3329 13.1604 5.37609 12.5575 5.43266 11.9559C3.78129 11.3336 2.13437 10.6943 0.536587 9.97166C-0.0128821 9.77248 -0.106694 9.14361 0.103265 8.71525C0.387679 8.2309 1.02948 8.07075 1.57596 7.908C4.90405 6.78436 8.23808 5.66202 11.5751 4.55532C15.5152 3.21814 19.4404 1.84973 23.4028 0.565942ZM24.4735 0.979982C20.9414 2.10362 17.4525 3.33273 13.9427 4.50844C9.64378 5.9693 5.30758 7.34814 1.03841 8.87279C0.719743 8.95352 0.602106 9.35975 0.931191 9.49906C1.71445 9.87791 2.56173 10.1474 3.36881 10.4886C4.12675 10.7555 4.84002 11.1344 5.64561 11.2855C5.79004 10.7789 5.92704 10.2699 6.12658 9.77899C6.38121 9.76207 6.8056 9.67744 6.87558 9.98474C6.81007 10.568 6.49736 11.1175 6.53607 11.7138C8.29319 12.3661 10.0056 13.1043 11.7493 13.78C11.8551 13.4754 11.9176 13.0991 12.3166 12.9819C15.682 11.6448 19.3704 11.0654 23.0351 10.8206C24.8115 10.8141 26.5984 10.736 28.3674 10.9039C31.2414 11.0758 34.084 11.637 36.7792 12.5223C37.2661 12.6851 37.7948 12.8074 38.2042 13.1043C38.3293 13.2893 38.374 13.5054 38.4559 13.7072C41.918 12.2424 45.4501 10.9066 48.9256 9.47042C49.1058 9.37667 49.2055 9.20741 49.3381 9.072C48.9732 8.60067 48.2719 8.54598 47.721 8.32465C43.6885 6.96013 39.6442 5.62557 35.5894 4.31314C32.5174 3.24809 29.4038 2.27809 26.3199 1.23778C25.7333 1.06071 25.1018 0.741714 24.4735 0.979982ZM19.6534 11.719C17.1189 12.1083 14.5815 12.6473 12.2541 13.6304C12.2557 16.237 12.2422 18.8423 12.2705 21.4476C13.085 21.2484 13.8385 20.8982 14.6456 20.6756C17.5895 19.8227 20.6778 19.3423 23.7766 19.2551C25.2567 19.0637 26.7429 19.2824 28.226 19.3085C30.7975 19.5415 33.3648 19.9373 35.8173 20.6703C36.5261 20.8826 37.2096 21.1625 37.9347 21.3357C37.9556 19.0715 37.9199 16.8072 37.9333 14.5431C37.9377 14.2084 37.9213 13.8738 37.8841 13.5418C34.6334 12.2502 31.0761 11.6461 27.535 11.4091C24.9053 11.2425 22.2562 11.3466 19.6534 11.719ZM12.6829 22.2888C12.6785 23.8303 12.68 25.3719 12.6829 26.9135C12.6577 28.3132 12.9867 29.7089 13.5764 31.0071C15.347 35.0172 20.1745 37.853 25.1018 37.672C26.8887 37.7124 28.6548 37.2853 30.26 36.6226C33.2352 35.4039 35.5239 33.046 36.5722 30.3391C37.1857 28.7806 37.2244 27.1127 37.2036 25.4813C37.1887 24.3993 37.2319 23.3147 37.1857 22.2341C37.1828 21.9932 36.9028 21.949 36.7018 21.8695C33.0535 20.6742 29.1596 19.9789 25.2537 20.0714C24.3603 20.0897 23.4609 20.035 22.5734 20.1391C19.1754 20.3605 15.7609 20.9803 12.6829 22.2888ZM26.1532 39.1485C22.6062 39.4636 18.961 38.4793 16.1659 36.5575C15.4705 36.9247 14.8645 37.4013 14.2911 37.9012C12.0636 39.7696 10.4732 42.1887 9.66909 44.7915C9.30575 46.0205 8.99603 47.2822 9.05112 48.5594C19.9422 48.5673 30.8333 48.5621 41.7244 48.5621C41.7572 47.9749 41.7244 47.3851 41.5741 46.8095C40.8309 42.6171 38.167 38.6004 34.0542 36.2776C31.8116 37.8764 29.0524 38.9506 26.1532 39.1485Z" fill="#FEFEFE"/>
<path d="M14.8927 24.1767C14.8659 22.9697 16.0662 21.9541 17.3735 21.7679C18.8596 21.7341 20.3472 21.7666 21.8348 21.7523C22.8623 21.7159 23.787 22.3161 24.3052 23.0583C24.8711 23.8017 24.469 24.7313 24.6924 25.5516C25.1034 25.5568 25.5144 25.5542 25.9238 25.523C25.9253 24.993 25.8985 24.4605 25.9387 23.9319C26.0489 22.8655 27.1181 22.0205 28.2662 21.781C29.7924 21.7171 31.3247 21.7744 32.8525 21.7536C33.9142 21.7132 34.8613 22.3564 35.378 23.1259C35.7532 23.6325 35.6103 24.26 35.6385 24.8302C35.6073 25.8263 35.6936 26.8276 35.5909 27.8197C35.2276 28.8834 34.0259 29.83 32.7036 29.7271C31.4081 29.7193 30.114 29.7298 28.8185 29.7232C27.1449 29.7193 25.6722 28.2963 25.9104 26.8301C25.5024 26.8262 25.0929 26.825 24.6849 26.8301C24.597 27.2963 24.6506 27.7988 24.3752 28.2233C23.9448 28.9433 23.1571 29.5423 22.2354 29.7063C20.8074 29.7506 19.3764 29.7103 17.9469 29.7259C16.5188 29.7818 15.1429 28.7923 14.9031 27.5684C14.8659 26.4383 14.8913 25.3068 14.8927 24.1767ZM17.4137 22.5517C16.7347 22.6755 16.1198 23.0999 15.8636 23.6701C15.5435 24.2795 15.6804 24.9644 15.6536 25.6115C15.6909 26.3445 15.5122 27.1257 15.9068 27.8093C16.2567 28.5475 17.2127 28.9486 18.0943 28.9173C19.1947 28.9134 20.2936 28.916 21.3926 28.916C22.3083 28.9381 23.2702 28.4785 23.6038 27.7116C23.8778 27.0828 23.7855 26.3992 23.8004 25.7417C23.7855 25.0816 23.8778 24.4006 23.6276 23.7653C23.3537 23.0036 22.4438 22.4749 21.5385 22.5192C20.1641 22.5361 18.7852 22.4802 17.4137 22.5517ZM28.5848 22.5544C27.7807 22.678 27.0704 23.2197 26.8574 23.915C26.7473 25.0802 26.792 26.2625 26.8292 27.4317C27.0868 28.3041 28.0889 28.9498 29.1164 28.9264C30.263 28.9264 31.4111 28.929 32.5576 28.9251C33.7593 28.9394 34.9595 28.0111 34.8538 26.9213C34.8478 26.0919 34.8509 25.2638 34.8523 24.4345C34.9149 23.3798 33.743 22.4541 32.5562 22.5205C31.2324 22.5361 29.9056 22.4763 28.5848 22.5544Z" fill="#FEFEFE"/>
<path d="M28.8961 24.6636C29.5065 24.5712 30.2109 24.5269 30.747 24.8524C31.3277 25.191 31.7908 25.7599 31.7551 26.3927C31.9293 27.6543 30.2586 28.7259 28.9258 28.2663C27.8254 27.9902 27.1583 26.8562 27.5231 25.9109C27.7182 25.3328 28.2512 24.8654 28.8961 24.6636Z" fill="#FEFEFE"/>
<path d="M19.9169 24.6558C20.5393 24.5646 21.2421 24.5387 21.7782 24.8785C22.6479 25.3341 23.0321 26.3692 22.6152 27.1817C22.3232 27.8405 21.5683 28.2585 20.7895 28.3574C19.7174 28.4316 18.6154 27.7194 18.4769 26.7676C18.2819 25.8692 18.9415 24.9474 19.9169 24.6558Z" fill="#FEFEFE"/>
<path d="M23.029 33.9379C22.7372 33.529 22.5853 33.0043 22.8712 32.5617C23.4981 32.4887 23.4966 33.1124 23.7275 33.4601C24.052 33.9183 24.6031 34.3402 25.2567 34.3077C25.8315 34.3558 26.3959 34.0824 26.71 33.6696C26.9289 33.3351 27.0257 32.9535 27.1746 32.5929C27.2968 32.5864 27.5409 32.5734 27.6631 32.5668C27.8313 32.7856 27.9251 33.0368 27.8477 33.2999C27.5738 34.4613 26.113 35.2139 24.81 35.0406C24.0684 34.9144 23.4639 34.4574 23.029 33.9379Z" fill="#FEFEFE"/>
<path d="M24.4735 0.979981C25.1018 0.741712 25.7333 1.06071 26.3199 1.23778C29.4038 2.27809 32.5174 3.24809 35.5894 4.31314C39.6442 5.62557 43.6885 6.96013 47.721 8.32465C48.2719 8.54598 48.9732 8.60067 49.3381 9.072C49.2055 9.20741 49.1058 9.37667 48.9255 9.47041C45.45 10.9066 41.918 12.2424 38.4559 13.7072C38.3739 13.5054 38.3293 13.2893 38.2042 13.1043C37.7948 12.8074 37.2661 12.6851 36.7791 12.5223C34.084 11.637 31.2413 11.0758 28.3674 10.9039C26.5983 10.736 24.8114 10.8141 23.0351 10.8206C19.3704 11.0653 15.682 11.6448 12.3166 12.9819C11.9176 13.0991 11.855 13.4754 11.7493 13.78C10.0056 13.1043 8.29317 12.3661 6.53605 11.7138C6.49733 11.1175 6.81004 10.568 6.87556 9.98474C6.80557 9.67743 6.38119 9.76207 6.12655 9.77899C5.92702 10.2699 5.79003 10.7789 5.64559 11.2855C4.84 11.1344 4.12673 10.7555 3.36879 10.4886C2.56172 10.1474 1.71443 9.87791 0.931174 9.49905C0.602088 9.35975 0.719726 8.95352 1.03838 8.87279C5.30757 7.34813 9.64376 5.9693 13.9427 4.50844C17.4525 3.33272 20.9414 2.10362 24.4735 0.979981Z" fill="#043E6C"/>
<path d="M19.6534 11.719C22.2562 11.3466 24.9053 11.2425 27.535 11.4091C31.0761 11.6461 34.6334 12.2502 37.8841 13.5418C37.9213 13.8738 37.9377 14.2084 37.9333 14.5431C37.9199 16.8072 37.9556 19.0715 37.9347 21.3357C37.2096 21.1625 36.5261 20.8826 35.8173 20.6703C33.3648 19.9373 30.7976 19.5415 28.226 19.3085C26.7429 19.2824 25.2567 19.0637 23.7766 19.255C20.6778 19.3423 17.5895 19.8227 14.6456 20.6756C13.8385 20.8982 13.085 21.2484 12.2705 21.4476C12.2423 18.8423 12.2557 16.2369 12.2541 13.6303C14.5815 12.6473 17.1189 12.1083 19.6534 11.719Z" fill="#043E6C"/>
<path d="M12.6829 22.2888C15.7609 20.9803 19.1754 20.3605 22.5734 20.1391C23.4609 20.035 24.3603 20.0897 25.2537 20.0714C29.1596 19.9789 33.0535 20.6742 36.7018 21.8695C36.9028 21.949 37.1828 21.9932 37.1857 22.2341C37.2319 23.3147 37.1887 24.3993 37.2035 25.4813C37.2244 27.1127 37.1857 28.7806 36.5722 30.3391C35.5239 33.046 33.2352 35.4039 30.26 36.6226C28.6548 37.2853 26.8887 37.7124 25.1018 37.672C20.1745 37.853 15.347 35.0172 13.5764 31.0071C12.9867 29.7089 12.6577 28.3132 12.6829 26.9135C12.68 25.3719 12.6785 23.8303 12.6829 22.2888ZM14.8928 24.1767C14.8913 25.3068 14.866 26.4383 14.9032 27.5684C15.1429 28.7923 16.5188 29.7818 17.9469 29.7259C19.3764 29.7103 20.8074 29.7506 22.2354 29.7063C23.1571 29.5423 23.9448 28.9433 24.3752 28.2233C24.6506 27.7988 24.597 27.2963 24.6849 26.8301C25.0929 26.825 25.5024 26.8262 25.9104 26.8301C25.6722 28.2963 27.1449 29.7193 28.8186 29.7232C30.1141 29.7298 31.4081 29.7193 32.7036 29.7272C34.0259 29.83 35.2276 28.8834 35.5909 27.8197C35.6936 26.8276 35.6073 25.8263 35.6386 24.8302C35.6103 24.26 35.7533 23.6325 35.378 23.1259C34.8613 22.3564 33.9142 21.7132 32.8525 21.7536C31.3247 21.7744 29.7924 21.7171 28.2662 21.781C27.1181 22.0205 26.0489 22.8655 25.9388 23.9319C25.8986 24.4605 25.9254 24.993 25.9238 25.523C25.5144 25.5542 25.1034 25.5568 24.6924 25.5516C24.469 24.7313 24.8711 23.8017 24.3052 23.0583C23.787 22.3161 22.8623 21.7159 21.8348 21.7523C20.3472 21.7666 18.8597 21.7341 17.3735 21.7679C16.0662 21.9541 14.866 22.9697 14.8928 24.1767ZM23.029 33.9379C23.4639 34.4574 24.0684 34.9144 24.81 35.0406C26.113 35.2139 27.5738 34.4613 27.8477 33.2999C27.9251 33.0368 27.8313 32.7856 27.6631 32.5668C27.5409 32.5734 27.2968 32.5864 27.1746 32.5929C27.0258 32.9535 26.9289 33.3351 26.71 33.6696C26.3959 34.0824 25.8316 34.3558 25.2567 34.3077C24.6031 34.3402 24.052 33.9183 23.7275 33.4601C23.4966 33.1124 23.4981 32.4887 22.8712 32.5617C22.5853 33.0043 22.7372 33.529 23.029 33.9379Z" fill="#043E6C"/>
<path d="M17.4138 22.5517C18.7852 22.4802 20.1641 22.5361 21.5386 22.5192C22.4438 22.4749 23.3537 23.0036 23.6277 23.7653C23.8778 24.4006 23.7856 25.0816 23.8004 25.7417C23.7856 26.3992 23.8778 27.0828 23.6039 27.7116C23.2703 28.4785 22.3084 28.9381 21.3926 28.916C20.2937 28.916 19.1947 28.9134 18.0943 28.9173C17.2127 28.9486 16.2567 28.5475 15.9068 27.8093C15.5123 27.1257 15.691 26.3445 15.6537 25.6114C15.6805 24.9644 15.5435 24.2795 15.8636 23.6701C16.1198 23.0999 16.7347 22.6755 17.4138 22.5517ZM19.917 24.6558C18.9415 24.9474 18.282 25.8692 18.4769 26.7676C18.6154 27.7194 19.7174 28.4316 20.7895 28.3574C21.5683 28.2585 22.3232 27.8405 22.6152 27.1817C23.0321 26.3692 22.6479 25.3341 21.7782 24.8785C21.2422 24.5387 20.5394 24.5646 19.917 24.6558Z" fill="#043E6C"/>
<path d="M28.5848 22.5544C29.9057 22.4763 31.2324 22.5361 32.5562 22.5205C33.743 22.4541 34.9149 23.3798 34.8524 24.4345C34.8509 25.2638 34.8479 26.0919 34.8538 26.9213C34.9596 28.0111 33.7593 28.9394 32.5577 28.9251C31.4111 28.929 30.2631 28.9264 29.1164 28.9264C28.089 28.9498 27.0869 28.3041 26.8292 27.4317C26.792 26.2625 26.7474 25.0802 26.8575 23.915C27.0704 23.2197 27.7807 22.678 28.5848 22.5544ZM28.8961 24.6636C28.2512 24.8654 27.7182 25.3329 27.5231 25.9109C27.1583 26.8562 27.8254 27.9902 28.9258 28.2663C30.2586 28.7259 31.9293 27.6543 31.7551 26.3927C31.7909 25.7599 31.3277 25.191 30.747 24.8524C30.2109 24.5269 29.5065 24.5712 28.8961 24.6636Z" fill="#043E6C"/>
</svg>
